<svg xmlns="http://www.w3.org/2000/svg" width="617.432" height="344.152" viewBox="0 0 617.432 344.152"><defs><style>.a{fill:#fff;}.b{fill:#333;}.c{fill:#dc1f26;}.d{fill:#733130;}.e{fill:#a01823;}</style></defs><g transform="translate(586.642 99.32)"><g transform="translate(-586.642 -99.32)"><path class="a" d="M-47.251,42.278c-1.558-3.8-2.177-7.9-3.126-11.892s-2.3-8.029-5.035-11.094a11.909,11.909,0,0,0-8.33-4.095l.113-.163a5.412,5.412,0,0,0,5.279-2.242A5.429,5.429,0,0,0-59.7,5.235a5.429,5.429,0,0,0-7.557,1.349,5.412,5.412,0,0,0-.276,5.729l-46.73,67.046h-15.78V-3.608h0l-2.849-5c-.347-.609-8.7-15.117-25.427-31.844h0C-181.755-63.885-221.742-91.82-279.151-91.82c-40.453,0-78.551,14.348-110.177,41.495-23.808,20.435-35.592,40.86-36.082,41.719l-2.848,5h0V79.36h-16.915L-491.9,12.314a5.412,5.412,0,0,0-.276-5.729,5.43,5.43,0,0,0-7.558-1.349,5.43,5.43,0,0,0-1.349,7.559,5.411,5.411,0,0,0,5.279,2.242l.113.163a11.909,11.909,0,0,0-8.33,4.095c-2.73,3.065-4.087,7.1-5.035,11.094s-1.568,8.094-3.126,11.892a26.289,26.289,0,0,1-25.223,15.833c5.407,2.033,10.87,4.079,16.594,4.855s11.815.178,16.769-2.789c5.122-3.07,8.5-8.278,12.37-12.822,3.322-3.9,7.58-7.571,12.491-8.468l28.21,40.474h-30.461v26.6h4.361v13.257h-4.361v26.669l17.306,13.038h30.036l14.21,7.058h-11.228l14.1,38.342h30.423l-2.1-9.066h27.743l81.791,40.624,81.792-40.624h27.741l-2.1,9.066h30.425l14.1-38.342h-11.228l14.211-7.058h30.036l17.306-13.038V110.268H-97.789v-4.309h3.738V79.36h-14.411l28.21-40.474c4.912.9,9.169,4.571,12.492,8.468,3.873,4.545,7.248,9.753,12.369,12.822,4.954,2.967,11.045,3.564,16.769,2.789s11.187-2.821,16.594-4.855A26.287,26.287,0,0,1-47.251,42.278ZM-140.622-7.3h0l.116.176Zm-.552-.83c-.046-.067-.087-.132-.134-.2.05.074.094.142.143.214Zm-1.034-1.519-.007-.01.16.23C-142.106-9.5-142.158-9.574-142.209-9.647Zm-.749-1.075-.141-.2c.066.093.126.18.191.272Zm-1.143-1.6.011.015Zm-1.321-1.8c.1.13.194.26.289.389C-145.228-13.862-145.327-13.992-145.423-14.122Zm-1.168-1.55c.085.111.165.217.248.326C-146.426-15.455-146.506-15.561-146.591-15.672Zm-1.345-1.739-.041-.053.153.2Zm-1.472-1.85-.1-.131c.077.1.155.193.232.287Zm-7.065-8.255.193.211C-156.344-27.374-156.41-27.446-156.473-27.516Zm1.968,2.2c.086.1.169.195.255.292Zm1.673,1.931.34.4Zm-12.073-12.834.054.052Zm-4.81-4.488.363.325Zm-2.415-2.138.475.415Zm-2.36-2.02.127.108Zm-2.79-2.295-.008-.006c.085.068.173.137.258.206Zm-2.57-2.037.205.162Zm-2.736-2.081-.182-.137c.086.063.171.127.256.192Zm-2.991-2.186h0Zm-3.38-2.347c.206.14.414.28.618.42C-188.544-55.53-188.751-55.67-188.957-55.81Zm-2.962-1.966c.2.132.4.264.605.4C-191.516-57.512-191.716-57.645-191.919-57.776Zm-6.134-3.794c-.074-.044-.144-.088-.218-.131l.278.165Zm-3.752-2.144-.128-.07c.151.084.306.166.457.251C-201.585-63.6-201.7-63.654-201.806-63.715Zm-3.347-1.81c.1.054.2.11.307.164Zm-3.949-2c.191.093.383.184.573.279C-208.717-67.338-208.91-67.429-209.1-67.523Zm-3.716-1.763q.452.208.9.418Q-212.364-69.078-212.816-69.285Zm-3.514-1.564c.237.1.469.206.706.309C-215.861-70.643-216.093-70.748-216.331-70.849Zm-3.773-1.565-.038-.016c.065.026.132.051.2.078C-220-72.374-220.05-72.394-220.1-72.414Zm-4.418-1.683-.039-.015c.227.083.458.161.684.245C-224.09-73.946-224.308-74.02-224.521-74.1Zm-3.414-1.2c-.151-.052-.3-.1-.451-.154l.7.237Zm-9.213-2.808c.347.094.7.187,1.041.282C-236.453-77.921-236.8-78.013-237.148-78.107Zm-4.036-1.038-.116-.029c.388.093.772.19,1.157.286C-240.489-78.975-240.836-79.062-241.184-79.146Zm-4.213-.968c.221.048.436.1.657.147C-244.96-80.014-245.176-80.066-245.4-80.114Zm-4.946-.968c.194.035.391.064.583.1C-249.952-81.018-250.149-81.047-250.342-81.082Zm-4.347-.718-.439-.067c.341.051.684.1,1.024.152C-254.3-81.745-254.5-81.771-254.689-81.8Zm-3.975-.551c-.279-.035-.556-.075-.836-.109.317.038.63.082.946.121Zm-5.991-.642c.251.023.5.039.753.062C-264.15-82.954-264.4-82.97-264.655-82.993Zm-4.583-.335-.362-.024q.608.036,1.213.074C-268.67-83.3-268.955-83.31-269.238-83.328Zm-4.4-.2c-.234-.007-.464-.021-.7-.027.4.011.8.031,1.206.045Zm-5.7-.1q-2.023,0-4.013.052,2.041-.051,4.114-.054Zm-6.016.125c-.715.026-1.433.049-2.143.084.82-.04,1.647-.069,2.474-.1Zm-4.777.246c-.484.032-.972.06-1.454.1.661-.05,1.327-.093,1.993-.135C-289.781-83.284-289.958-83.269-290.138-83.257Zm-4.542.364c-.315.03-.633.056-.946.087.561-.056,1.123-.111,1.689-.162C-294.187-82.946-294.431-82.917-294.68-82.893Zm-2.682.272-.252.026.339-.036Zm-1.73.205c-.173.022-.348.04-.521.062.487-.061.972-.127,1.462-.184C-298.468-82.5-298.777-82.455-299.092-82.417Zm-2.671.348c-.211.03-.429.053-.64.084.394-.057.79-.109,1.185-.163C-301.4-82.122-301.58-82.093-301.763-82.068Zm-1.636.237-.175.025c.13-.019.257-.039.387-.059C-303.259-81.854-303.329-81.841-303.4-81.831Zm-2.727.435c-.144.024-.291.045-.436.069.493-.085.986-.169,1.482-.249C-305.432-81.519-305.777-81.455-306.126-81.4Zm-4.359.8-.3.057c.636-.127,1.271-.256,1.913-.376C-309.413-80.818-309.947-80.706-310.485-80.6Zm-1.256.249c-.089.019-.18.034-.27.053l.3-.06Zm-3.188.694c-.171.038-.346.073-.516.112.945-.219,1.895-.434,2.854-.636C-313.378-80.015-314.152-79.834-314.929-79.657Zm-.857.192c-.16.037-.323.072-.483.109.212-.051.428-.1.641-.147Zm-3.965.979h0l-.112.028c.877-.23,1.763-.449,2.651-.665C-318.064-78.915-318.912-78.7-319.752-78.486Zm-3.656,1c.751-.216,1.509-.424,2.269-.63C-321.9-77.905-322.657-77.7-323.408-77.481Zm-3.484,1.048q1.059-.331,2.132-.649Q-325.832-76.764-326.892-76.434Zm-8.609,2.977-.122.047c-.511.194-1.022.39-1.529.588.722-.283,1.447-.564,2.18-.837C-335.15-73.594-335.325-73.524-335.5-73.457Zm1.769-.658c.689-.251,1.382-.5,2.079-.744C-332.351-74.616-333.043-74.366-333.733-74.115Zm3.4-1.2q1.032-.35,2.076-.687Q-329.3-75.662-330.329-75.312ZM-339.2-72l-.187.077c-.473.194-.945.385-1.413.581q1.276-.538,2.573-1.058C-338.549-72.274-338.87-72.138-339.2-72Zm-3.644,1.539L-343-70.4c-.524.23-1.054.455-1.572.689Q-343-70.416-341.4-71.1C-341.885-70.89-342.359-70.675-342.84-70.466Zm-3.615,1.633-.021.009-.006,0-.007,0c-.378.177-.762.349-1.136.529q1.324-.633,2.676-1.245C-345.454-69.3-345.953-69.067-346.454-68.833Zm-9.3,4.714-.005,0-.014.007-.012.007c-.221.121-.445.24-.664.363q.906-.5,1.825-1C-355.007-64.53-355.381-64.324-355.756-64.119Zm2.192-1.184q.947-.5,1.907-.989Q-352.616-65.8-353.564-65.3Zm2.94-1.516q1.037-.521,2.091-1.028C-349.234-67.507-349.934-67.166-350.624-66.819ZM-364.4-59.035l-.011.006-.01.006h0l-.013.009c-.224.141-.451.28-.673.422q1.049-.667,2.116-1.327C-363.469-59.626-363.935-59.331-364.4-59.035Zm2.25-1.393c.62-.377,1.242-.751,1.872-1.123C-360.911-61.181-361.533-60.806-362.153-60.428Zm2.845-1.69c.6-.348,1.2-.693,1.812-1.036C-358.106-62.812-358.708-62.467-359.308-62.119ZM-139.9-6.19Zm-18.244-23.143-.354-.379C-158.381-29.586-158.264-29.46-158.146-29.333Zm-4.4-4.558-.164-.163-.106-.107.124.122ZM-385.358-43.55q-2.124,1.825-4.117,3.646Q-387.483-41.723-385.358-43.55Zm19.721-14.71q-2.655,1.7-5.177,3.454Q-368.293-56.556-365.637-58.26Zm-5.726,3.84q-.964.675-1.911,1.354Q-372.329-53.746-371.363-54.42Zm-2.646,1.888q-.84.611-1.665,1.225Q-374.851-51.921-374.009-52.532Zm-2.452,1.817q-.787.594-1.56,1.19Q-377.249-50.122-376.462-50.715Zm-2.342,1.8q-.77.6-1.524,1.2Q-379.573-48.318-378.8-48.918Zm-2.256,1.79c-.523.422-1.038.845-1.55,1.266C-382.1-46.283-381.583-46.706-381.06-47.128Zm-2.182,1.788q-.853.71-1.685,1.423Q-384.094-44.629-383.242-45.34Zm-6.481,5.664q-.849.777-1.675,1.553Q-390.572-38.9-389.722-39.676Zm-2.172,2.024q-.692.653-1.367,1.3Q-392.588-37-391.895-37.652Zm-1.932,1.853q-.628.613-1.243,1.221Q-394.457-35.186-393.827-35.8Zm-1.816,1.792q-.6.6-1.187,1.2Q-396.243-33.406-395.642-34.007Zm-3.381,3.469q-.628.662-1.235,1.316Q-399.649-29.878-399.023-30.538Zm1.654-1.72q-.6.617-1.183,1.228Q-397.968-31.643-397.369-32.259ZM-418.386-6.212l-.015.022h0Zm17.774-22.633q-.768.83-1.507,1.647Q-401.382-28.014-400.612-28.845Zm-1.52,1.661q-.779.861-1.523,1.706Q-402.911-26.322-402.132-27.184Zm-1.543,1.73q-.7.8-1.372,1.574Q-404.376-24.658-403.675-25.454Zm-1.688,1.945c-.344.4-.683.8-1.015,1.192Q-405.881-22.907-405.364-23.508Zm-1.405,1.658c-.3.358-.595.714-.884,1.065Q-407.22-21.312-406.769-21.85Zm-1.283,1.55q-.417.51-.818,1.007Q-408.469-19.79-408.052-20.3Zm-1.2,1.487q-.4.5-.779.981Q-409.652-18.316-409.255-18.813Zm-1.129,1.424c-.264.338-.52.668-.774,1C-410.9-16.72-410.648-17.051-410.384-17.389Zm-1.063,1.371q-.435.569-.849,1.116Q-411.881-15.45-411.448-16.017Zm-.995,1.31q-.976,1.3-1.825,2.475Q-413.417-13.408-412.442-14.707Zm-2.071,2.817c-.189.264-.376.525-.555.779C-414.889-11.365-414.7-11.626-414.513-11.89Zm-.846,1.191c-.156.22-.309.438-.455.65C-415.667-10.261-415.514-10.48-415.359-10.7Zm-.74,1.061c-.138.2-.272.395-.4.585Q-416.305-9.34-416.1-9.638Zm-.666.974q-.185.272-.359.532C-417.008-8.306-416.889-8.483-416.765-8.664Zm-.6.9-.315.475Zm-.54.819c-.093.142-.179.275-.265.408C-418.088-6.673-418-6.806-417.908-6.948Z" transform="translate(588.434 99.593)"/><path class="a" d="M-277.359,244.832-360.974,203.3h-16.14l2.1,9.066H-420.64l-16.7-45.4h-27.6l-22.478-16.936V71.86h23.342l-16.016-22.977a26.62,26.62,0,0,0-3.877,3.787c-.837.983-1.648,2-2.461,3.014-3.132,3.913-6.682,8.349-11.828,11.434-6.037,3.618-13.577,4.942-21.808,3.824-6.626-.9-12.82-3.226-18.285-5.28l-48.29-18.152,51.495,3.116A18.508,18.508,0,0,0-517.585,39.6a45.216,45.216,0,0,0,2.022-7.446c.236-1.1.473-2.2.733-3.293,1.032-4.346,2.737-9.915,6.795-14.468.182-.205.369-.405.559-.6A13.226,13.226,0,0,1-502.391-.869a13.216,13.216,0,0,1,18.38,3.282,13.093,13.093,0,0,1,2.323,8.665l42.364,60.781h5.085V-5.395l3.869-6.787c.518-.909,12.964-22.475,37.772-43.768,33.054-28.373,72.9-43.369,115.24-43.369,60.071,0,101.854,29.173,126.327,53.646,17.44,17.44,26.314,32.842,26.683,33.489l3.871,6.788V71.86h3.95l42.364-60.781a13.087,13.087,0,0,1,2.322-8.664A13.218,13.218,0,0,1-53.461-.869a13.227,13.227,0,0,1,5.087,14.662q.286.3.559.6c4.055,4.551,5.761,10.12,6.795,14.464.26,1.094.5,2.2.733,3.295A45.114,45.114,0,0,0-38.267,39.6h0A18.528,18.528,0,0,0-20.7,50.626L30.79,47.51-17.5,65.661c-5.464,2.054-11.66,4.383-18.285,5.28-8.228,1.115-15.769-.207-21.807-3.823-5.147-3.085-8.7-7.521-11.828-11.435-.814-1.016-1.625-2.031-2.461-3.014a26.619,26.619,0,0,0-3.877-3.787L-91.777,71.86h7.292v30.908H-67.3v47.264l-22.479,16.936h-27.6l-16.7,45.4H-179.7l2.1-9.066h-16.138Zm-119.313-57.077h39.345l79.968,39.718,79.968-39.718h39.346l-2.1,9.066h15.222l8.386-22.8h-33.213l45.513-22.6h29.26l12.133-9.141V118.314H-103.77V98.458h3.738V87.406h-35.992V-1.275l-1.829-3.208c-.069-.123-.491-.856-1.27-2.089l-6.087,3.994-.124-.188,6.086-4q-.235-.368-.508-.793L-145.6-3.19l-.292-.416h0l-.023-.035.932-.6,5.083-3.545q-.339-.519-.733-1.11l-6.031,4.153-.294-.432,5.019-3.227,1.113-.78c-.194-.29-.4-.593-.613-.9l-6.04,4.176-.165-.235,5.989-4.254q-.46-.67-.977-1.4l-6.035,4.224,6.03-4.232q-.48-.682-1.014-1.418l-5.939,4.393-.269-.361,5.923-4.425q-.437-.6-.906-1.231l-5.9,4.48-.241-.317,5.891-4.5q-.574-.768-1.194-1.578l-5.86,4.572-.174-.221,5.861-4.576q-.611-.794-1.266-1.626l-5.823,4.654-.188-.232,5.784-4.708c-.921-1.163-1.908-2.378-2.957-3.633l-5.7,4.869-.336-.394,5.7-4.875q-.684-.813-1.4-1.648l-5.659,4.955-.253-.288,5.652-4.967q-.85-.983-1.75-1.994l-5.61,5.046-.094-.1,5.516-5.154c-.543-.608-1.1-1.22-1.668-1.841l-5.527,5.17-.343-.366,5.528-5.175q-1.906-2.065-4.006-4.207l-5.386,5.386-.3-.3,5.4-5.371c-.289-.293-.582-.588-.877-.882q-.558-.558-1.129-1.119l-5.324,5.479,5.3-5.505q-2.128-2.093-4.44-4.22l-5.164,5.7-.338-.3,5.144-5.721q-.947-.866-1.927-1.736l-5.078,5.8-.456-.4,5.063-5.824c-.732-.645-1.479-1.294-2.234-1.939l-4.979,5.92-.1-.087,4.985-5.916q-1.244-1.059-2.53-2.117l-4.895,6.023-.283-.228,4.89-6.03c-.769-.629-1.545-1.254-2.339-1.88l-4.774,6.148-.152-.12,4.751-6.167q-1.293-1.018-2.628-2.031l-4.634,6.284-.253-.188h0l-.07-.052,4.665-6.264q-2.685-2.026-5.543-4.013l-4.434,6.485-.6-.405,4.416-6.5q-1.16-.8-2.347-1.586l-4.315,6.594-.578-.378,4.289-6.614q-2.944-1.935-6.059-3.8l-3.95,6.871-.317-.187,3.991-6.85q-1.575-.937-3.193-1.852l-3.853,6.952-.438-.24,3.826-6.974q-1.432-.8-2.9-1.588l-3.745,7.037-.28-.15,3.717-7.051q-1.663-.885-3.366-1.739L-210.174-60l-.566-.276,3.528-7.178q-1.388-.69-2.808-1.361l-3.387,7.264-.868-.4,3.353-7.287q-1.391-.645-2.806-1.271l-3.209,7.368-.677-.3,3.179-7.381c-1.187-.517-2.393-1.024-3.609-1.517l-3.035,7.458-.237-.094,1.982-4.759,1.053-2.7q-1.825-.738-3.7-1.441l-2.813,7.566-.635-.227,2.7-7.616c-1.01-.373-2.024-.735-3.053-1.09l-2.629,7.652-.219-.073h0l-.441-.151,2.57-7.675q-3.782-1.286-7.725-2.4l-2.18,7.826-.99-.268,2.128-7.848q-1.488-.409-3-.792l-1.983,7.9-1.138-.283.73-2.858,1.2-5.05c-1.131-.277-2.267-.541-3.416-.795l-1.739,7.964-.621-.14,1.7-7.969q-2.158-.465-4.361-.878l-1.484,8.022-.561-.1,1.452-8.034q-1.869-.342-3.77-.64l-1.25,8.075-.977-.145,1.2-8.088q-1.677-.252-3.383-.472L-257.7-74.35l-.946-.12.984-8.12c-1.458-.177-2.924-.336-4.41-.475l-.76,8.147-.706-.058.71-8.159c-1.237-.11-2.48-.206-3.737-.288l-.538,8.175-1.151-.07.471-8.18q-1.76-.1-3.54-.167l-.3,8.194-1.151-.044.233-8.19c-1.621-.048-3.282-.086-4.913-.069v8.19h-.092q-1.931,0-3.833.051l-.2-8.187c-.553.015-1.112.031-1.664.052l.274,8.192h-.024l-.769.031c-.523.018-1.046.036-1.564.062l-.408-8.175q-1.049.054-2.1.122l.507,8.17h-.005l-1.893.126-.61-8.154c-.782.061-1.567.127-2.347.2l.728,8.139h0l-1.605.154-.814-8.127c-.551.058-1.1.118-1.656.18l.995,8.1-.415.046-.915-8.109-.537.063.944,8.1h-.005l-1.39.175-1.017-8.091q-.8.1-1.605.216l1.1,8.074-1.129.154-1.159-8.057-.785.117,1.2,8.053-.352.055-1.253-8.046c-.5.078-.992.158-1.489.239l1.3,8.027h-.005l-1.307.22h0l-.1.018-1.371-8.01c-.768.134-1.538.275-2.3.421L-305.652-73c-.317.059-.631.122-.944.186l-.853.167h0l-.028.005-1.586-7.954c-.308.062-.614.125-.92.19l1.72,7.921-.34.069-1.682-7.926-.58.123,1.676,7.92h0l-.054.011c-.554.118-1.1.244-1.651.37l-1.006.224h0l-1.821-7.881-.161.038,1.851,7.871-.663.152-.183-.779-.76.759.058.24h0l-.118.028-.276.067-.76.761h-2.6l.028.1c-.723.2-1.445.394-2.159.6l-2.227-7.74c-.453.133-.9.266-1.355.4l2.3,7.718c-.679.2-1.357.406-2.028.617l-2.4-7.675c-.454.144-.909.29-1.362.439l2.473,7.647q-.993.32-1.973.653l-2.577-7.6c-.443.151-.883.3-1.325.46l2.647,7.572q-1,.348-1.982.709l-2.746-7.529c-.412.152-.826.307-1.237.463l2.806,7.5h-.006l-.591.228c-.48.182-.943.359-1.4.538l-.072.028h0l-2.916-7.451c-.354.141-.712.283-1.065.426l2.968,7.421h0l-.933.383,0-.005-.058.024,0,.005-.412.169c-.346.142-.692.282-1.035.427l-.008,0h0l-3.093-7.362-.6.256,3.121,7.342-.04.018c-.267.114-.532.231-.795.348l-1.259.55c-.289.125-.578.251-.863.379l-.056.025-3.277-7.259-.379.173,3.295,7.254h0c-.341.155-.68.314-1.018.473L-342.49-61l-.036-.079-.278.069-.342-1.369-2.765-5.8q-.455.219-.909.442l3.467,7.159c-.666.323-1.331.648-1.988.977l-3.567-7.1c-.344.175-.69.351-1.033.53l3.614,7.071c-.608.311-1.215.624-1.814.941l-3.705-7.013c-.353.189-.71.379-1.062.571l3.757,6.982h0l-.011.006-1.736.946-3.835-6.928q-.521.291-1.04.587l3.881,6.9q-.868.488-1.72.985l-3.97-6.838c-.323.19-.648.382-.97.574l4.012,6.805q-.9.532-1.785,1.071l-4.1-6.746c-.279.171-.56.343-.837.516l4.131,6.717c-.347.214-.689.429-1.031.646l-.985.618h0l-4.229-6.644-.522.337,4.247,6.625c-1.648,1.056-3.31,2.166-4.943,3.3l-4.468-6.44-.548.387,4.494,6.421c-.607.426-1.212.852-1.807,1.28l-.021.015,0,0-4.567-6.351c-.244.177-.488.357-.731.536l4.6,6.323c-.535.39-1.068.779-1.593,1.171l-4.667-6.258c-.262.2-.522.4-.784.6l4.7,6.229q-.751.567-1.49,1.137l-4.76-6.166c-.259.2-.52.407-.778.613l4.789,6.133q-.734.574-1.455,1.15l-4.85-6.071c-.244.2-.485.394-.728.593l4.875,6.04q-.749.606-1.482,1.212l-4.935-5.976-.626.526,4.958,5.947c-.546.455-1.083.91-1.617,1.366l-5.017-5.878c-.143.124-.285.247-.427.371l5.034,5.856c-1.332,1.144-2.658,2.319-3.944,3.493l-5.181-5.674-.245.228,5.19,5.664,0,0h0l-.043.04q-.79.724-1.559,1.445l-5.248-5.587c-.166.158-.332.316-.5.474l5.267,5.565c-.443.419-.882.836-1.313,1.252l-5.311-5.5-.561.552,5.331,5.476q-.6.586-1.189,1.168l-5.376-5.416c-.191.192-.379.383-.568.574l5.391,5.392q-.575.577-1.137,1.148l-5.432-5.335-.535.556,5.453,5.3q-.577.594-1.138,1.18l-5.49-5.248-.464.494,5.506,5.222c-.4.426-.8.848-1.192,1.269l-5.542-5.165c-.116.125-.231.252-.345.377l5.556,5.143q-.738.8-1.448,1.582l-5.6-5.065-.013.015,5.6,5.065q-.748.825-1.461,1.635l-5.65-4.984-.02.023,5.655,4.98q-.675.765-1.319,1.514l-5.693-4.91-.314.371,5.706,4.892c-.329.383-.653.763-.969,1.139l-5.739-4.831q-.2.235-.387.468l5.748,4.813-.847,1.019-5.777-4.758c-.131.162-.261.323-.39.484l5.79,4.732-.788.97-5.812-4.687c-.129.162-.254.322-.38.483l5.826,4.66-.742.936-5.853-4.609c-.114.149-.23.3-.343.446l5.857,4.592-.733.944-5.887-4.534-.282.374,5.888,4.524c-.279.363-.548.717-.813,1.067l-5.913-4.466-.144.195,5.92,4.452q-.928,1.234-1.736,2.355l-5.976-4.317-.241.344,5.985,4.3-.533.745-6-4.258c-.1.14-.191.277-.283.412l6.009,4.229-.433.62-6.026-4.187c-.092.137-.183.272-.272.4l6.037,4.158-.383.559-6.048-4.124-.254.386,6.058,4.1-.35.521-6.065-4.07-.233.362L-409.1-3.2l-.3.45-6.087-4-.219.346,6.089,3.987-.255.394-6.091-3.968-.181.294L-410-1.821l-.2.309-6.04-4.017c-.361.591-.567.951-.623,1.048l-1.827,3.207V87.406h-53.178V98.458h4.361v28.8h-4.361v15.02l12.132,9.141h29.26l45.512,22.6H-418.18l8.386,22.8h15.222ZM-70.92,33.612a35.815,35.815,0,0,1,10.868,8.973c.94,1.1,1.853,2.243,2.767,3.385,2.537,3.17,4.934,6.166,7.682,7.812a12.91,12.91,0,0,0,3.139,1.326A32.051,32.051,0,0,1-52.651,45.5a57.463,57.463,0,0,1-2.838-10.084c-.212-.99-.425-1.979-.658-2.962-.609-2.564-1.534-5.762-3.276-7.717a4.285,4.285,0,0,0-2.69-1.5l-1.556-.032Zm-421.263-10.4-1.557.032a4.288,4.288,0,0,0-2.69,1.494c-1.743,1.957-2.667,5.154-3.277,7.72-.233.981-.445,1.971-.657,2.961A57.547,57.547,0,0,1-503.2,45.5a32.072,32.072,0,0,1-6.187,9.607,12.929,12.929,0,0,0,3.139-1.327c2.746-1.646,5.144-4.641,7.682-7.812.913-1.141,1.827-2.281,2.767-3.384a35.8,35.8,0,0,1,10.868-8.973Zm74.23-30.051-5.061-3.479Zm98.529-71.282,1.462,5.382v-4.92l-.242-.794Q-318.814-78.291-319.424-78.122Zm5.023,3.469,1.259,1.259-1.411-5.987-.942.23Zm9.571-6.749.059.349Zm-1.247-7.314Z" transform="translate(586.642 99.32)"/></g><g transform="translate(-535.617 -92.002)"><path class="b" d="M-99.755,106.731v-4.31h3.738v-26.6h-35.993V-7.145H-430.225V75.823H-483.4v26.6h4.361v13.257H-483.4v26.668l17.306,13.038h30.036l154.944,76.958,154.944-76.958h30.036l17.306-13.038V106.731Z" transform="translate(539.375 95.358)"/><path class="a" d="M-193.2,75.462V2.794h14.428V75.462Zm-50.517,0V2.794h-14.427V75.462Zm32.473,0V2.794h-14.427V75.462Zm64.945,0V2.794h-14.428V75.462Zm-194.835,0V2.794h-14.428V75.462Zm-64.945,0V2.794h-14.428V75.462Zm32.473,0V2.794h-14.428V75.462Zm64.945,0V2.794h-14.428V75.462Zm32.472,0V2.794H-290.62V75.462Z" transform="translate(541.665 95.719)"/><g transform="translate(117.418 8.189)"><path class="c" d="M-283.276-84.358c95.221,0,140.84,80.023,140.84,80.023s-45.619,80.023-140.84,80.023S-424.115-4.335-424.115-4.335-378.5-84.358-283.276-84.358Z" transform="translate(424.115 84.358)"/></g><g transform="translate(208.831 72.742)"><g transform="translate(38.211 0)"><path class="d" d="M4.985,0H5.35a4.986,4.986,0,0,1,4.986,4.986V25.953A4.985,4.985,0,0,1,5.35,30.938H4.986A4.986,4.986,0,0,1,0,25.952V4.985A4.985,4.985,0,0,1,4.985,0Z"/></g><g transform="translate(19.106 0)"><path class="d" d="M-317.478,3.7V-16.9a5.167,5.167,0,0,1,5.167-5.168h0a5.167,5.167,0,0,1,5.167,5.168V3.7a5.167,5.167,0,0,1-5.168,5.168h0A5.167,5.167,0,0,1-317.478,3.7Z" transform="translate(317.478 22.072)"/></g><g transform="translate(0 0)"><path class="d" d="M4.985,0h.364a4.986,4.986,0,0,1,4.986,4.986V25.954A4.985,4.985,0,0,1,5.35,30.939H4.986A4.986,4.986,0,0,1,0,25.953V4.985A4.985,4.985,0,0,1,4.985,0Z"/></g><g transform="translate(57.317 0)"><path class="d" d="M-280.61,3.7V-16.9a5.168,5.168,0,0,1,5.168-5.168h0a5.167,5.167,0,0,1,5.166,5.168V3.7a5.167,5.167,0,0,1-5.167,5.166h0A5.168,5.168,0,0,1-280.61,3.7Z" transform="translate(280.61 22.072)"/></g><g transform="translate(76.422 0)"><path class="d" d="M4.985,0h.364a4.986,4.986,0,0,1,4.986,4.986V25.954A4.985,4.985,0,0,1,5.35,30.939H4.986A4.986,4.986,0,0,1,0,25.953V4.985A4.985,4.985,0,0,1,4.985,0Z"/></g><g transform="translate(95.528 0)"><path class="d" d="M-243.74,3.7V-16.9a5.167,5.167,0,0,1,5.167-5.168h0a5.167,5.167,0,0,1,5.168,5.168V3.7a5.167,5.167,0,0,1-5.166,5.168h0A5.167,5.167,0,0,1-243.74,3.7Z" transform="translate(243.741 22.072)"/></g></g><g transform="translate(117.418 88.212)"><g transform="translate(0 0)"><path class="e" d="M-283.276,72.877c95.221,0,140.84-80.023,140.84-80.023H-424.115S-378.5,72.877-283.276,72.877ZM-172.215,1.79C-195.358,23.149-232.162,46.2-283.276,46.2S-371.194,23.149-394.336,1.79Z" transform="translate(424.115 7.146)"/></g></g><path class="b" d="M-136.726-9.044c-.347-.609-8.7-15.117-25.427-31.844v0c-23.435-23.434-63.422-51.369-120.831-51.369-40.453,0-78.551,14.349-110.177,41.495C-416.971-30.33-428.755-9.9-429.245-9.044l-2.848,5,2.848,5c.348.609,8.7,15.117,25.428,31.845,23.435,23.434,63.421,51.369,120.831,51.369,40.453,0,78.552-14.348,110.178-41.495C-149,22.235-137.216,1.809-136.726.95l2.849-5ZM-282.985-84.07c55.276,0,93.838,26.968,116.464,49.593A172.559,172.559,0,0,1-143.736-6.629h-278.5C-413.439-20.335-367.967-84.07-282.985-84.07Zm0,160.046c-55.276,0-93.838-26.967-116.463-49.592A172.505,172.505,0,0,1-422.234-1.466h278.5C-152.533,12.242-198,75.975-282.985,75.975Z" transform="translate(541.243 92.259)"/><g transform="translate(119.009 8.189)"><path class="a" d="M-223.264,57.978a164.316,164.316,0,0,0,17.95-9.8V-4.655h-17.95Z" transform="translate(429.836 87.26)"/><path class="a" d="M-283.332-84.358A157.473,157.473,0,0,0-350.656-69.55h0l-.006,0q-4.8,2.242-9.28,4.7l-.014.008q-4.477,2.453-8.638,5.078l-.01.007h0A181.172,181.172,0,0,0-422.579-6.916h86.316V5.968a5.167,5.167,0,0,0,5.167,5.166h0a5.166,5.166,0,0,0,5.167-5.166V-6.916h8.77V5.967a5.168,5.168,0,0,0,5.167,5.168,5.167,5.167,0,0,0,5.167-5.168V-6.916h8.77V5.967a5.168,5.168,0,0,0,5.166,5.168h0a5.167,5.167,0,0,0,5.167-5.168V-6.916h8.77V5.968a5.167,5.167,0,0,0,5.166,5.166,5.167,5.167,0,0,0,5.168-5.166V-6.916h8.771V5.968a5.167,5.167,0,0,0,5.166,5.166h0a5.167,5.167,0,0,0,5.169-5.166V-6.916h8.771V5.967a5.167,5.167,0,0,0,5.168,5.168A5.167,5.167,0,0,0-230.4,5.967V-6.916h32.342V-45.022A183.045,183.045,0,0,1-154.936-6.917h10.853C-152.875-20.619-198.346-84.358-283.332-84.358ZM-368.605-13.1c-11.773-.42-22.827-.8-32.76-1.116a167.4,167.4,0,0,1,21.3-22.931c3.6-2.692,7.417-5.336,11.462-7.883Zm152.6,5.909L-230.4-7.767v-6.87a5.167,5.167,0,0,0-5.168-5.168h0a5.168,5.168,0,0,0-5.168,5.168v6.458l-8.771-.35v-6.108a5.167,5.167,0,0,0-5.166-5.168h0a5.168,5.168,0,0,0-5.168,5.168v5.7l-8.771-.348v-5.348a5.167,5.167,0,0,0-5.168-5.168,5.168,5.168,0,0,0-5.168,5.168V-9.7l-8.77-.345v-4.6a5.168,5.168,0,0,0-5.166-5.168h0a5.167,5.167,0,0,0-5.168,5.168v4.192l-8.77-.341v-3.851a5.167,5.167,0,0,0-5.166-5.168,5.167,5.167,0,0,0-5.167,5.168v3.453l-8.77-.336v-3.118a5.167,5.167,0,0,0-5.167-5.168h0a5.168,5.168,0,0,0-5.169,5.168v2.728c-4.857-.183-9.67-.363-14.393-.537V-54.833a157.435,157.435,0,0,1,67.324-14.805A157.474,157.474,0,0,1-216.008-54.83Z" transform="translate(422.58 84.358)"/><path class="a" d="M-350.656-4.655h-17.949V41.931c-23.268-18.655-36.222-39.354-39.242-46.586H-422.58a180.656,180.656,0,0,0,62.622,57.916l.017.009a157.612,157.612,0,0,0,39.184,15.167l1.515.345a152.64,152.64,0,0,1-31.413-14.33Z" transform="translate(422.58 87.26)"/></g><path class="e" d="M-175.683,156.485h35.648l-14.1,38.342h-30.424Z" transform="translate(550.254 101.314)"/><path class="e" d="M-390.32,194.827h-30.423l-14.1-38.342H-399.2Z" transform="translate(541.143 101.314)"/><path class="c" d="M-396.678,186.079h225.29l6.652-38.342H-403.329Z" transform="translate(542.29 100.996)"/><path class="a" d="M-289.191,189.523l2.686,8.268h8.693l-7.033,5.11,2.686,8.268-7.033-5.11-7.033,5.11,2.686-8.268-7.033-5.11h8.693Z" transform="translate(546.031 102.517)"/><g transform="translate(0 96.08)"><g transform="translate(0 0)"><rect class="b" width="4.759" height="117.099" transform="translate(109.679 100.119) rotate(145.118)"/><path class="b" d="M-502.33,8.98a5.429,5.429,0,0,0,7.558,1.35,5.431,5.431,0,0,0,1.349-7.56,5.43,5.43,0,0,0-7.558-1.349A5.43,5.43,0,0,0-502.33,8.98Z" transform="translate(538.651 -0.446)"/><path class="b" d="M-492.993,11.366c-3.918-1.22-8.3.665-11.032,3.729s-4.087,7.1-5.035,11.094-1.568,8.094-3.126,11.893a26.29,26.29,0,0,1-25.223,15.833c5.407,2.032,10.87,4.078,16.594,4.853s11.815.179,16.769-2.789c5.122-3.07,8.5-8.278,12.37-12.822s9.015-8.795,14.984-8.682c-.36-.685-.56-1.39-.92-2.074Z" transform="translate(537.409 -0.062)"/></g></g><g transform="translate(405.702 96.08)"><g transform="translate(0 0)"><rect class="b" width="4.759" height="117.099" transform="translate(66.967 4.059) rotate(34.882)"/><path class="b" d="M-74.829,8.98a5.429,5.429,0,0,1-7.559,1.35,5.431,5.431,0,0,1-1.349-7.56,5.429,5.429,0,0,1,7.557-1.349A5.429,5.429,0,0,1-74.829,8.98Z" transform="translate(148.188 -0.446)"/><path class="b" d="M-82.415,11.366c3.919-1.22,8.3.665,11.034,3.729s4.086,7.1,5.035,11.094,1.568,8.094,3.126,11.893A26.288,26.288,0,0,0-38,53.915c-5.407,2.032-10.871,4.078-16.594,4.853s-11.815.179-16.769-2.789c-5.122-3.07-8.5-8.278-12.369-12.822s-9.016-8.795-14.985-8.682c.361-.685.561-1.39.92-2.074Z" transform="translate(147.678 -0.062)"/></g></g><g transform="translate(179.031 257.275)"><path class="a" d="M-361.2,155.979h7.014a4.944,4.944,0,0,1,2.48,1.488,4.668,4.668,0,0,1,1.063,2.41l.07,1.912v9.07q0,3.756-.567,3.756a5.352,5.352,0,0,1-2.267,2.338l-.78.283H-361.2a5.534,5.534,0,0,1-3.118-2.621,4.879,4.879,0,0,1-.354-2.126V160.656A4.545,4.545,0,0,1-361.2,155.979Zm1.7,5.031v10.628q0,1.346.85,1.346,2.693.141,2.693-.708l.072-.638V161.223q.07-1.063-.851-1.205h-2.126A.817.817,0,0,0-359.494,161.01Z" transform="translate(364.667 -155.979)"/><path class="a" d="M-348.8,155.979h6.8q.4.312,1.913,5.1l2.338,6.944h.212l-.013-11.493c.085-.369.183-.553.3-.553h4.818l.212.213v20.831l-.212.212h-6.589q-.454,0-.638-.992l-3.755-11.124h-.212v11.549q0,.567-.425.567H-348.8l-.212-.212V156.192Z" transform="translate(365.237 -155.979)"/><path class="a" d="M-326.16,155.979h13.391l.214.213-.015,3.33c-.048.377-.212.567-.5.567h-3.457a.438.438,0,0,0-.5.5v16.084q0,.567-.426.567H-321.7q-.5,0-.5-.708V160.372l-.4-.283h-3.359c-.472-.029-.708-.137-.708-.326v-3.288C-326.6,156.145-326.433,155.979-326.16,155.979Z" transform="translate(366.051 -155.979)"/><path class="a" d="M-310.716,155.979h5.456l.213.213v7.722l.212.284h4.818l.212-.212v-7.794l.212-.213h5.457l.212.213.028,20.406q0,.637-.567.637h-4.7q-.567,0-.567-.637v-7.865a.38.38,0,0,0-.425-.283h-4.677l-.212.212-.014,7.865q0,.707-.5.708h-4.875q-.566,0-.566-.637V156.617Q-311,156.078-310.716,155.979Z" transform="translate(366.621 -155.979)"/><path class="a" d="M-292.162,155.979H-279.9l.212.213v3.188a.439.439,0,0,1-.5.5H-287.2a.375.375,0,0,0-.425.425v3.684l.212.212h5.952q.637,0,.637.5v3.047a.375.375,0,0,1-.425.425H-287.2a.376.376,0,0,0-.425.426v3.542q0,1.2,1.842,1.2h5.952a.439.439,0,0,1,.5.5v3.188l-.212.212h-9.141a4.978,4.978,0,0,1-3.046-2.126,6.212,6.212,0,0,1-.709-2.763V156.83Q-292.445,155.98-292.162,155.979Z" transform="translate(367.296 -155.979)"/><path class="a" d="M-273.432,155.979h10.2a4.692,4.692,0,0,1,3.4,4.748v4.464a4.341,4.341,0,0,1-1.134,3.33q-1.175,1.631-4.109,1.63h-2.905a.375.375,0,0,0-.425.425v6.305a.5.5,0,0,1-.5.354h-4.251q-.5,0-.5-.567V156.192Zm5.031,4.535v5.243l.283.283h2.055a.994.994,0,0,0,1.134-.779v-2.833l.07-1.346a1.023,1.023,0,0,0-1.134-.992h-1.984A.375.375,0,0,0-268.4,160.514Z" transform="translate(367.981 -155.979)"/><path class="a" d="M-257.979,155.979h5.243q.5,0,.5.921v15.092q.072.992.992.992h7.369q.78,0,.779.638v3.4l-.212.212H-253.8a6.494,6.494,0,0,1-3.4-1.842,5.3,5.3,0,0,1-1.062-2.905V156.617Q-258.262,156.078-257.979,155.979Z" transform="translate(368.541 -155.979)"/><path class="a" d="M-237.046,155.979h7.439q.665,0,.85,2.339l3.684,18.635a.379.379,0,0,1-.425.283h-4.392q-.567,0-.709-1.7a13.521,13.521,0,0,0-.709-3.33h-4.039q-.269,0-.92,4.748l-.284.283h-4.818l-.212-.212q2.055-10.386,3.047-16.438l.921-4.322A.853.853,0,0,1-237.046,155.979Zm1.842,12.259.072.07h2.692l.142-.142-1.346-7.51-.07-.072h-.072q-.325,0-.652,2.48A45.992,45.992,0,0,0-235.2,168.238Z" transform="translate(369.148 -155.979)"/><path class="a" d="M-223.6,155.979h5.244q.524,0,1.629,2.339L-214.46,162h.141a68.576,68.576,0,0,1,3.472-5.952l.284-.072h5.243v.213q-6.6,11.322-6.661,11.691v9.14l-.212.212h-4.534l-.212-.212v-9.14q-.127-.51-6.661-11.691Z" transform="translate(369.802 -155.979)"/></g><g transform="translate(168.486 180.239)"><g transform="translate(47.701)"><path class="a" d="M-328.077,81.649H-314.4q1.293,0,1.293,2.4v39.357q.185,2.587,2.587,2.587h19.217q2.032,0,2.032,1.662v8.87l-.554.554h-27.347q-4.065-.48-8.87-4.8a13.811,13.811,0,0,1-2.771-7.576V83.312Q-328.816,81.907-328.077,81.649Z" transform="translate(328.816 -81.649)"/><path class="a" d="M-273.489,81.649h19.4q1.736,0,2.217,6.1l9.609,48.6a.99.99,0,0,1-1.108.739h-11.456q-1.478,0-1.848-4.435-1.22-7.981-1.848-8.684h-10.532q-.7,0-2.4,12.38l-.739.739h-12.565l-.553-.554q5.357-27.087,7.945-42.868l2.4-11.272A2.224,2.224,0,0,1-273.489,81.649Zm4.8,31.967.186.184h7.022l.369-.37-3.51-19.586-.185-.184h-.184q-.85,0-1.7,6.467Q-268.685,111.25-268.685,113.616Z" transform="translate(330.4 -81.649)"/><path class="a" d="M-229.371,81.649h24.945l.553.554v8.684q0,1.478-1.847,1.479H-221.98a2.772,2.772,0,0,0-2.956,2.4v29.2A5.213,5.213,0,0,0-223.088,126h6.467a.98.98,0,0,0,1.108-1.109V106.779q0-.333,1.109-.923l.184.184H-203.5a1.306,1.306,0,0,1,1.478,1.478v27.9q0,1.405-.739,1.663h-24.391q-6.725-1.626-9.239-5.728a13.387,13.387,0,0,1-2.032-5.913V92.735q0-3.621,4.065-8.315Q-230.85,81.945-229.371,81.649Z" transform="translate(332.107 -81.649)"/></g><path class="a" d="M-374.1,81.649h36.4q1.108,0,1.109,1.478v8.685a1.47,1.47,0,0,1-1.663,1.662h-20.509l-.555.554v9.979a1.365,1.365,0,0,0,.555,1.109h15.89a1.237,1.237,0,0,1,.739,1.293v9.607a1.143,1.143,0,0,1-1.293,1.293h-15.521l-.369.37v18.847l-.554.554H-374.1q-.591,0-.739-2.587l.184-51.183-.184-.186v-.184Q-374.508,81.649-374.1,81.649Z" transform="translate(374.841 -81.649)"/></g></g></g></svg>