<svg xmlns="http://www.w3.org/2000/svg" xmlns:xlink="http://www.w3.org/1999/xlink" width="141.726" height="85.94" viewBox="0 0 141.726 85.94"><defs><style>.a,.b{mix-blend-mode:screen;isolation:isolate;}.a{fill:url(#a);}.b{fill:url(#b);}</style><linearGradient id="a" x1="-0.003" y1="0.146" x2="0.815" y2="0.626" gradientUnits="objectBoundingBox"><stop offset="0.647" stop-color="#fff"/><stop offset="1"/></linearGradient><linearGradient id="b" x1="0.171" y1="0.403" x2="1.424" y2="0.745" gradientUnits="objectBoundingBox"><stop offset="0.647" stop-color="#fff"/><stop offset="0.834" stop-color="#ac6300"/><stop offset="0.852" stop-color="#905300"/><stop offset="0.888" stop-color="#5d3500"/><stop offset="0.922" stop-color="#341e00"/><stop offset="0.954" stop-color="#170d00"/><stop offset="0.98" stop-color="#060300"/><stop offset="1"/></linearGradient></defs><g transform="translate(-1099.608 -779.788)"><path class="a" d="M1193.222,784.232,1141.4,866.867h-23.02l-18.77-82.635h23.964l11.8,53.713,33.763-53.713Z" transform="translate(0 -2.791)"/><path class="b" d="M1280.088,863.249a50.2,50.2,0,0,1-14.992-6.374L1274.3,839.4a50.993,50.993,0,0,0,13.34,6.08,50.343,50.343,0,0,0,14.166,2.066q6.729,0,10.446-1.948t3.72-5.372q0-2.949-3.365-4.6a61.324,61.324,0,0,0-10.448-3.541,109.107,109.107,0,0,1-13.339-4.31,23.769,23.769,0,0,1-9.149-6.669q-3.838-4.486-3.837-11.805a25.725,25.725,0,0,1,4.841-15.524,31,31,0,0,1,13.812-10.329,55.432,55.432,0,0,1,21.012-3.659,71.186,71.186,0,0,1,16.528,1.83,44.906,44.906,0,0,1,13.221,5.253l-8.5,17.353a38.989,38.989,0,0,0-10.683-4.663,45.348,45.348,0,0,0-11.981-1.593q-6.968,0-10.92,2.242t-3.955,5.785q0,3.072,3.423,4.722a62.745,62.745,0,0,0,10.625,3.541,102.672,102.672,0,0,1,13.28,4.132,23.427,23.427,0,0,1,9.031,6.493q3.776,4.369,3.778,11.451a25.337,25.337,0,0,1-4.9,15.406,31.361,31.361,0,0,1-13.93,10.329,55.532,55.532,0,0,1-20.954,3.659A74.6,74.6,0,0,1,1280.088,863.249Z" transform="translate(-103.919 0)"/></g></svg>